# xmcd CD database file
#
# Track frame offsets:
#	150
#	21422
#	46080
#	69942
#	87705
#	105082
#	130300
#	139210
#	159700
#	188507
#
# Disc length: 2656 seconds
#
# Revision: 0
# Processed by: cddbd v1.5PL3 Copyright (c) Steve Scherf et al.
# Submitted via: CDex 1.50
#
DISCID=800a5e0a
DTITLE=Christina Bjordal Band - Where Dreams Begin
DYEAR=2004
DGENRE=Jazz
TTITLE0=Travelling
TTITLE1=Oh what a day
TTITLE2=Light out of darkness
TTITLE3=Singing to my boys
TTITLE4=Emotions on my sleeve
TTITLE5=Small day tomorrow
TTITLE6=Cleaning time
TTITLE7=Where dreams begin
TTITLE8=Somtimes life sucks
TTITLE9=Sailors wife
EXTD=YEAR: 2004
EXTT0=
EXTT1=
EXTT2=
EXTT3=
EXTT4=
EXTT5=
EXTT6=
EXTT7=
EXTT8=
EXTT9=
PLAYORDER=
